<svg width="298" height="185" xmlns="http://www.w3.org/2000/svg"><g fill="none"><path d="M9.6 153.8c4.7 0 6.1 2.7 6.1 2.7h.1V146h5.3v29.5h-5v-1.7c0-.8.1-1.4.1-1.4h-.1s-1.8 3.6-6.7 3.6c-5.8 0-9.4-4.5-9.4-11.1 0-6.8 4-11.1 9.6-11.1zm1 17.8c2.7 0 5.3-2 5.3-6.7 0-3.3-1.7-6.5-5.3-6.5-2.9 0-5.3 2.4-5.3 6.6 0 3.9 2.2 6.6 5.3 6.6zM26 146h5.2v4.7H26V146zm0 8.4h5.3v21.2H26v-21.2zm18.4 25.7c3.3 0 6-1.4 6-5.2v-1.3c0-.5.1-1.1.1-1.1h-.1c-1.3 1.9-3.1 2.9-5.9 2.9-6.1 0-9.5-4.9-9.5-10.8 0-5.8 3.3-10.6 9.4-10.6 4.6 0 6.3 2.7 6.3 2.7h.1v-2.2h5v20c0 7.3-5.7 10-11.2 10-2.7 0-5.5-.8-7.5-1.8l1.6-4c-.1 0 2.5 1.4 5.7 1.4zm6.2-15.4c0-4.8-2.4-6.1-5.2-6.1-3.2 0-5 2.3-5 5.9 0 3.7 1.9 6.5 5.3 6.5 2.5-.1 4.9-1.5 4.9-6.3zM61 146h5.2v4.7H61V146zm0 8.4h5.3v21.2H61v-21.2zm10.7 4.9H69v-4.2h2.9V149h5.2v6.1h4.8v4.2h-4.8v8.3c0 3.5 2.7 4 4.2 4 .6 0 1-.1 1-.1v4.6s-.6.1-1.6.1c-3 0-8.8-.9-8.8-8v-8.9h-.2zm26 3.2h.7v-.3c0-2.8-1.7-3.8-4.1-3.8-3 0-5.8 2-5.8 2l-2-3.8s3.3-2.6 8.3-2.6c5.6 0 8.8 3.1 8.8 8.5v13.3h-4.9v-1.7c0-.8.1-1.5.1-1.5h-.1s-1.6 3.8-6.5 3.8c-3.8 0-7.2-2.4-7.2-6.6.1-6.9 9.2-7.3 12.7-7.3zm-4.1 9.7c2.8 0 4.8-3 4.8-5.6v-.5h-.9c-2.7 0-7.1.4-7.1 3.3 0 1.5 1 2.8 3.2 2.8zM108 146h5.2v22.2c0 2.3.8 2.9 2.2 2.9h.8v4.6s-.8.1-1.7.1c-2.9 0-6.5-.8-6.5-6.8v-23z" fill="#EFB81D"/><path d="M120 154.5h2.8v3.1c0 .9-.1 1.7-.1 1.7h.1c1-2.8 4.3-5.3 7.6-5.3 3.9 0 5.9 1.8 6.5 5.2h.1c1.1-2.8 4.2-5.2 7.7-5.2 5.1 0 7 3 7 8.1v13.4h-2.8v-12.6c0-3.4-.7-6.3-4.5-6.3-3.2 0-5.8 2.8-6.6 5.9-.3.9-.4 1.9-.4 3v9.9h-2.8v-12.6c0-3.2-.5-6.3-4.4-6.3-3.4 0-6 3-6.9 6.2-.2.9-.3 1.8-.3 2.8v9.9h-2.8v-20.9h-.2zm48.7 8h1.2v-.5c0-4-2.2-5.4-5.2-5.4-3.5 0-5.9 2-5.9 2l-1.3-2.2s2.7-2.4 7.5-2.4c5 0 7.8 2.8 7.8 8v13.5h-2.7v-2.3c0-1 .1-1.7.1-1.7h-.1s-1.7 4.5-7 4.5c-3.5 0-7.1-2-7.1-6.2-.1-7.1 9.1-7.3 12.7-7.3zm-5.3 11.1c4 0 6.4-4.2 6.4-7.8v-.9h-1.2c-3.3 0-9.9.1-9.9 4.8.1 1.9 1.6 3.9 4.7 3.9zm14.6-18.4h2.8v3.7c0 .9-.1 1.7-.1 1.7h.1c1-3.2 3.3-5.6 6.6-5.6.6 0 1.1.1 1.1.1v2.8s-.5-.1-1-.1c-3 0-5.2 2.3-6.1 5.4-.4 1.3-.6 2.7-.6 4.1v8.8H178v-20.9zm14.1-8.2h2.8v16.3h3.3l6.3-8h3.4l-7.3 9.1v.1l8 11.8h-3.4l-7-10.5h-3.4v10.5H192V147zm28.4 7c5.8 0 8.7 4.5 8.7 9.7 0 .5-.1 1.5-.1 1.5H213c.1 5.4 3.8 8.3 8.1 8.3 3.8 0 6.4-2.5 6.4-2.5l1.3 2.2s-3 2.9-7.8 2.9c-6.3 0-11-4.5-11-11 .2-6.9 4.8-11.1 10.5-11.1zm5.9 8.8c-.2-4.4-2.8-6.4-6-6.4-3.5 0-6.5 2.2-7.2 6.4h13.2zm8.3-5.4H232V155h2.8v-6h2.8v6h5.3v2.4h-5.3v10.4c0 4.9 3.1 5.5 4.7 5.5.6 0 1-.1 1-.1v2.5s-.5.1-1.2.1c-2.4 0-7.3-.8-7.3-7.8v-10.6h-.1zM247 147h3v3.5h-3V147zm.1 8.3h2.8v21h-2.8v-21zm8.9-.8h2.8v3.1c0 .9-.1 1.7-.1 1.7h.1c.8-1.9 3.4-5.3 8.4-5.3 5.2 0 7 3 7 8.1v13.4h-2.9v-12.6c0-3.3-.5-6.2-4.5-6.2-3.6 0-6.7 2.5-7.6 5.9-.3.9-.3 1.8-.3 2.8v10h-2.8v-20.9h-.1zm31.6 27.2c4.1 0 7.3-1.9 7.3-6.6v-1.9c0-.8.1-1.5.1-1.5h-.1c-1.3 2.3-3.4 3.7-6.6 3.7-5.6 0-9.3-4.5-9.3-10.8 0-6.3 3.5-10.6 9.1-10.6 5.5 0 6.9 3.5 6.9 3.5h.1v-3h2.8V175c0 6.7-4.9 9.3-10 9.3-2.4 0-4.8-.6-6.9-1.7l1.1-2.3c-.2 0 2.4 1.4 5.5 1.4zm7.4-17.1c0-6.1-2.9-8-6.6-8-4.1 0-6.5 3-6.5 8s2.7 8.3 6.9 8.3c3.2-.1 6.2-2.1 6.2-8.3zM98.8 42H84.3v14H73.2L68 67.8h16.2l.1 52.7h14.5z" fill="#000"/><path d="M68.1 12.5H24.4v22.1H10V0h74.1v11l-46 109.2H21.8L68.1 12.5zM84 11L38.1 120.2 84 11z" fill="#EFB81D"/><path d="M274.9 108.8V65.2c0-5.8-.2-11-3.9-15.9-4.3-5.8-11.5-9.3-20.7-9.3-10.5 0-19.5 4.3-28.6 13.2V42.1h-20.5L196 53.9h11.1v54.9h-5.2l-5 11.8h37v-11.8h-12.2v-42c8.4-8.9 16.3-13.4 24.7-13.4 13 0 13.9 8.1 13.9 20.1v35.3h-12v11.8H287v-11.8h-12.1z" fill="#000"/><path d="M182.4 88.803c-2.3 6.8-7.1 12.8-14 16.2-11.8 5.9-25.7 2.6-33.8-7l48.5-24.2 11.9-6c-.6-2.1-1.5-4.1-2.4-6.1-10.1-20.2-34.7-28.5-55-18.4-18.2 9.1-26.7 30-20.8 48.9l-8.8 4.4v14.6l14.6-7.3c11.5 16.1 33.3 21.9 51.6 12.8 13.9-6.9 22.1-20.7 22.7-35.2l-14.5 7.3zm-38.9-33.7c11.7-5.9 25.7-2.6 33.8 7l-48.5 24.2c-2.9-12.3 2.9-25.4 14.7-31.2z" fill="#000"/></g></svg>